<svg width="252" height="82" viewBox="0 0 252 82" fill="none" xmlns="http://www.w3.org/2000/svg">
<path d="M63 62.6999C63 73.138 54.9797 81.5999 45.0862 81.5999L17.9137 81.5998C8.02025 81.5998 3.60333e-06 73.138 4.51587e-06 62.6999C5.4284e-06 52.2617 8.02025 43.7999 17.9137 43.7999L62 43.7999C62.5523 43.7999 63 44.2476 63 44.7999L63 62.6999Z" fill="#222222"/>
<path d="M-3.30458e-06 18.9002C-1.47951e-06 8.46206 8.02025 0.000245543 17.9137 0.000247273L45.0863 0.000252024C54.9797 0.000253754 63 8.46207 63 18.9002C63 29.3384 54.9797 37.8002 45.0862 37.8002L0.999991 37.8002C0.447707 37.8002 -6.53088e-06 37.3525 -6.43431e-06 36.8002L-3.30458e-06 18.9002Z" fill="#222222"/>
<path d="M227.263 57.3119V33.1199H233.551L234.127 37.0079C234.863 35.6639 235.903 34.5919 237.247 33.7919C238.591 32.9599 240.223 32.5439 242.143 32.5439C244.159 32.5439 245.855 32.9759 247.231 33.8399C248.607 34.7039 249.647 35.9519 250.351 37.5839C251.087 39.1839 251.455 41.1519 251.455 43.4879V57.3119H244.303V44.1599C244.303 42.3999 243.919 41.0399 243.151 40.0799C242.415 39.0879 241.231 38.5919 239.599 38.5919C238.639 38.5919 237.759 38.8319 236.959 39.3119C236.191 39.7599 235.583 40.4159 235.135 41.2799C234.687 42.1439 234.463 43.1839 234.463 44.3999V57.3119H227.263Z" fill="#222222"/>
<path d="M209.348 57.8879C207.012 57.8879 204.916 57.3439 203.06 56.2559C201.204 55.1679 199.732 53.6799 198.644 51.7919C197.556 49.8719 197.012 47.6959 197.012 45.2639C197.012 42.7679 197.556 40.5759 198.644 38.6879C199.732 36.7679 201.204 35.2639 203.06 34.1759C204.948 33.0879 207.044 32.5439 209.348 32.5439C211.716 32.5439 213.828 33.0879 215.684 34.1759C217.54 35.2639 219.012 36.7679 220.1 38.6879C221.188 40.5759 221.732 42.7519 221.732 45.2159C221.732 47.6799 221.188 49.8719 220.1 51.7919C219.012 53.6799 217.54 55.1679 215.684 56.2559C213.828 57.3439 211.716 57.8879 209.348 57.8879ZM209.348 51.6479C210.308 51.6479 211.156 51.4079 211.892 50.9279C212.66 50.4479 213.268 49.7279 213.716 48.7679C214.164 47.8079 214.388 46.6239 214.388 45.2159C214.388 43.8079 214.164 42.6239 213.716 41.6639C213.268 40.7039 212.676 39.9839 211.94 39.5039C211.204 39.0239 210.356 38.7839 209.396 38.7839C208.436 38.7839 207.572 39.0239 206.804 39.5039C206.068 39.9839 205.476 40.7039 205.028 41.6639C204.58 42.6239 204.356 43.8079 204.356 45.2159C204.356 46.6239 204.58 47.8079 205.028 48.7679C205.476 49.7279 206.068 50.4479 206.804 50.9279C207.572 51.4079 208.42 51.6479 209.348 51.6479Z" fill="#222222"/>
<path d="M180.059 57.8879C177.563 57.8879 175.355 57.3439 173.435 56.2559C171.547 55.1679 170.059 53.6799 168.971 51.7919C167.915 49.9039 167.387 47.7439 167.387 45.3119C167.387 42.8159 167.915 40.6239 168.971 38.7359C170.059 36.8159 171.547 35.3119 173.435 34.2239C175.355 33.1039 177.563 32.5439 180.059 32.5439C183.227 32.5439 185.883 33.3759 188.027 35.0399C190.203 36.7039 191.579 39.0239 192.155 41.9999H184.523C184.235 40.9759 183.691 40.1759 182.891 39.5999C182.091 39.0239 181.131 38.7359 180.011 38.7359C178.955 38.7359 178.027 39.0079 177.227 39.5519C176.459 40.0639 175.851 40.8159 175.403 41.8079C174.955 42.7679 174.731 43.9039 174.731 45.2159C174.731 46.2079 174.859 47.1039 175.115 47.9039C175.371 48.7039 175.723 49.3919 176.171 49.9679C176.651 50.5439 177.211 50.9919 177.851 51.3119C178.491 51.5999 179.211 51.7439 180.011 51.7439C180.779 51.7439 181.451 51.6159 182.027 51.3599C182.635 51.1039 183.147 50.7359 183.563 50.2559C184.011 49.7759 184.331 49.1839 184.523 48.4799H192.155C191.579 51.3599 190.203 53.6479 188.027 55.3439C185.851 57.0399 183.195 57.8879 180.059 57.8879Z" fill="#222222"/>
<path d="M147.676 57.8879C145.66 57.8879 143.98 57.5679 142.636 56.9279C141.324 56.2879 140.348 55.4239 139.708 54.3359C139.1 53.2159 138.796 51.9839 138.796 50.6399C138.796 49.1999 139.148 47.9359 139.852 46.8479C140.588 45.7279 141.724 44.8479 143.26 44.2079C144.796 43.5359 146.732 43.1999 149.068 43.1999H154.924C154.924 42.1119 154.78 41.2159 154.492 40.5119C154.236 39.8079 153.804 39.2799 153.196 38.9279C152.588 38.5759 151.756 38.3999 150.7 38.3999C149.58 38.3999 148.636 38.6239 147.868 39.0719C147.1 39.5199 146.62 40.2239 146.428 41.1839H139.516C139.676 39.4559 140.236 37.9519 141.196 36.6719C142.188 35.3919 143.5 34.3839 145.132 33.6479C146.764 32.9119 148.636 32.5439 150.748 32.5439C153.052 32.5439 155.052 32.9279 156.748 33.6959C158.444 34.4319 159.756 35.5199 160.684 36.9599C161.644 38.3999 162.124 40.1919 162.124 42.3359V57.3119H156.124L155.26 53.8079C154.908 54.4159 154.492 54.9759 154.012 55.4879C153.532 55.9679 152.972 56.3999 152.332 56.7839C151.692 57.1359 150.988 57.4079 150.22 57.5999C149.452 57.7919 148.604 57.8879 147.676 57.8879ZM149.452 52.4159C150.22 52.4159 150.892 52.2879 151.468 52.0319C152.044 51.7759 152.54 51.4239 152.956 50.9759C153.372 50.5279 153.708 50.0159 153.964 49.4399C154.252 48.8319 154.46 48.1759 154.588 47.4719V47.4239H149.932C149.132 47.4239 148.46 47.5359 147.916 47.7599C147.404 47.9519 147.02 48.2399 146.764 48.6239C146.508 49.0079 146.38 49.4559 146.38 49.9679C146.38 50.5119 146.508 50.9759 146.764 51.3599C147.052 51.7119 147.42 51.9839 147.868 52.1759C148.348 52.3359 148.876 52.4159 149.452 52.4159Z" fill="#222222"/>
<path d="M121.933 57.8879C119.437 57.8879 117.245 57.3759 115.357 56.3519C113.469 55.2959 111.981 53.8399 110.893 51.9839C109.837 50.0959 109.309 47.9359 109.309 45.5039C109.309 43.0079 109.837 40.7839 110.893 38.8319C111.949 36.8799 113.421 35.3439 115.309 34.2239C117.197 33.1039 119.389 32.5439 121.885 32.5439C124.317 32.5439 126.445 33.0719 128.269 34.1279C130.093 35.1839 131.517 36.6239 132.541 38.4479C133.597 40.2399 134.125 42.3199 134.125 44.6879C134.125 45.0079 134.109 45.3759 134.077 45.7919C134.077 46.1759 134.045 46.5759 133.981 46.9919H114.445V42.8159H126.781C126.717 41.4719 126.221 40.3999 125.293 39.5999C124.397 38.7679 123.277 38.3519 121.933 38.3519C120.909 38.3519 119.981 38.5919 119.149 39.0719C118.317 39.5519 117.645 40.2719 117.133 41.2319C116.653 42.1919 116.413 43.4079 116.413 44.8799V46.3199C116.413 47.4399 116.621 48.4319 117.037 49.2959C117.485 50.1599 118.109 50.8319 118.909 51.3119C119.741 51.7919 120.717 52.0319 121.837 52.0319C122.893 52.0319 123.757 51.8239 124.429 51.4079C125.133 50.9599 125.677 50.3999 126.061 49.7279H133.405C132.957 51.2639 132.189 52.6559 131.101 53.9039C130.013 55.1199 128.685 56.0959 127.117 56.8319C125.549 57.5359 123.821 57.8879 121.933 57.8879Z" fill="#222222"/>
<path d="M79 57.3119V23.7119H93.352C95.688 23.7119 97.656 24.0799 99.256 24.8159C100.856 25.5199 102.072 26.5279 102.904 27.8399C103.768 29.1199 104.2 30.6399 104.2 32.3999C104.2 34.0959 103.832 35.5199 103.096 36.6719C102.36 37.8239 101.384 38.7039 100.168 39.3119C98.984 39.9199 97.672 40.2879 96.232 40.4159L97 39.8399C98.568 39.9039 99.944 40.3199 101.128 41.0879C102.312 41.8559 103.24 42.8639 103.912 44.1119C104.616 45.3279 104.968 46.6719 104.968 48.1439C104.968 49.9679 104.536 51.5679 103.672 52.9439C102.808 54.3199 101.544 55.3919 99.88 56.1599C98.216 56.9279 96.2 57.3119 93.832 57.3119H79ZM86.2 51.4559H92.632C94.232 51.4559 95.464 51.1039 96.328 50.3999C97.224 49.6639 97.672 48.6079 97.672 47.2319C97.672 45.8559 97.208 44.7839 96.28 44.0159C95.384 43.2479 94.136 42.8639 92.536 42.8639H86.2V51.4559ZM86.2 37.5359H92.104C93.64 37.5359 94.808 37.1839 95.608 36.4799C96.44 35.7759 96.856 34.7839 96.856 33.5039C96.856 32.2239 96.44 31.2319 95.608 30.5279C94.808 29.7919 93.624 29.4239 92.056 29.4239H86.2V37.5359Z" fill="#222222"/>
</svg>
