<svg width="153" height="153" viewBox="0 0 153 153" fill="none" xmlns="http://www.w3.org/2000/svg">
<g clip-path="url(#clip0_23_25)">
<rect width="153" height="153" fill="#222222"/>
<rect width="153" height="153" rx="4" fill="#222222" fill-opacity="0.25"/>
<path d="M115 101.716C115 114.473 105.197 124.816 93.1055 124.816L59.8946 124.816C47.8026 124.816 38 114.473 38 101.716C38 88.9579 47.8026 78.6157 59.8946 78.6157L114 78.6157C114.552 78.6157 115 79.0634 115 79.6157L115 101.716Z" fill="#F5F5F5"/>
<path d="M38 50.6843C38 37.7056 47.8025 27.1843 59.8946 27.1843L93.1054 27.1843C105.197 27.1843 115 37.7056 115 50.6843C115 63.663 105.197 74.1843 93.1054 74.1843L39 74.1843C38.4477 74.1843 38 73.7366 38 73.1843L38 50.6843Z" fill="#F5F5F5"/>
</g>
<defs>
<clipPath id="clip0_23_25">
<rect width="153" height="153" fill="white"/>
</clipPath>
</defs>
</svg>
